<svg xmlns="http://www.w3.org/2000/svg" version="1.1" xmlns:xlink="http://www.w3.org/1999/xlink" xmlns:svgjs="http://svgjs.dev/svgjs" width="1500" height="1500" viewBox="0 0 1500 1500"><rect width="1500" height="1500" fill="#000000"></rect><g transform="matrix(0.6666666666666666,0,0,0.6666666666666666,249.39393939393938,438.5856950067477)"><svg viewBox="0 0 396 247" data-background-color="#000000" preserveAspectRatio="xMidYMid meet" height="935" width="1500" xmlns="http://www.w3.org/2000/svg" xmlns:xlink="http://www.w3.org/1999/xlink"><g id="tight-bounds" transform="matrix(1,0,0,1,0.2400000000000091,-0.09999999999999432)"><svg viewBox="0 0 395.52 247.2" height="247.2" width="395.52"><rect width="395.52" height="247.2" fill="url(#4c7d2a61-9c39-4f8e-a783-54ed5cd4216c)" mask="url(#a5a3c103-7e9f-4a75-bd32-6a6ad0889e52)" data-fill-palette-color="tertiary"></rect><g><svg></svg></g><g><svg viewBox="0 0 395.52 247.2" height="247.2" width="395.52"><g transform="matrix(1,0,0,1,144.01932786885246,47.215199999999996)"><svg viewBox="0 0 107.48134426229507 152.7696" height="152.7696" width="107.48134426229507"><g><svg viewBox="0 0 107.48134426229507 152.7696" height="152.7696" width="107.48134426229507"><g><svg viewBox="0 0 107.48134426229507 152.7696" height="152.7696" width="107.48134426229507"><g><svg viewBox="0 0 107.48134426229507 152.7696" height="152.7696" width="107.48134426229507"><g id="textblocktransform"><svg viewBox="0 0 107.48134426229507 152.7696" height="152.7696" width="107.48134426229507" id="textblock"><g><svg viewBox="0 0 107.48134426229507 152.7696" height="152.7696" width="107.48134426229507"><g transform="matrix(1,0,0,1,0,0)"><svg width="107.48134426229507" viewBox="0.35 -36.3 25.75 36.599999999999994" height="152.7696" data-palette-color="url(#480d1350-946a-4fb2-846a-e1ddc6b7f676)"></svg></g></svg></g></svg></g></svg></g></svg></g></svg></g></svg></g><g><path d="M0 123.6c0-68.262 55.338-123.6 123.6-123.6 30.402 0 58.24 10.976 79.768 29.183l-11.147 0c-19.26-14.022-42.974-22.294-68.621-22.295-25.647 0-49.361 8.272-68.621 22.295h-1.238l0 0.914c-28.443 21.285-46.852 55.244-46.853 93.503 0 38.259 18.409 72.218 46.853 93.503v0.914l1.238 0c19.26 14.022 42.974 22.294 68.621 22.295 25.647 0 49.361-8.272 68.621-22.295h11.147c-21.528 18.206-49.366 29.183-79.768 29.183-68.262 0-123.6-55.338-123.6-123.6z" fill="url(#4c7d2a61-9c39-4f8e-a783-54ed5cd4216c)" stroke="transparent" data-fill-palette-color="tertiary"></path></g></svg></g><defs></defs><mask id="38fc3edd-9ce4-4f2d-8e50-3effe2243f81"><g id="SvgjsG1347"><svg viewBox="0 0 395.52 247.2" height="247.2" width="395.52"><g><svg></svg></g><g><svg viewBox="0 0 395.52 247.2" height="247.2" width="395.52"><g transform="matrix(1,0,0,1,144.01932786885246,47.215199999999996)"><svg viewBox="0 0 107.48134426229507 152.7696" height="152.7696" width="107.48134426229507"><g><svg viewBox="0 0 107.48134426229507 152.7696" height="152.7696" width="107.48134426229507"><g><svg viewBox="0 0 107.48134426229507 152.7696" height="152.7696" width="107.48134426229507"><g><svg viewBox="0 0 107.48134426229507 152.7696" height="152.7696" width="107.48134426229507"><g id="SvgjsG1346"><svg viewBox="0 0 107.48134426229507 152.7696" height="152.7696" width="107.48134426229507" id="SvgjsSvg1345"><g><svg viewBox="0 0 107.48134426229507 152.7696" height="152.7696" width="107.48134426229507"><g transform="matrix(1,0,0,1,0,0)"><svg width="107.48134426229507" viewBox="0.35 -36.3 25.75 36.599999999999994" height="152.7696" data-palette-color="url(#480d1350-946a-4fb2-846a-e1ddc6b7f676)"><path d="M10.15 0.3L10.15 0.3Q6.8 0.3 4.63-0.85 2.45-2 1.4-3.8 0.35-5.6 0.35-7.5L0.35-7.5Q0.35-9.35 1.25-11.03 2.15-12.7 3.83-13.8 5.5-14.9 7.8-14.9L7.8-14.9Q7.75-14.45 7.75-14.08 7.75-13.7 7.75-13.7L7.75-13.7Q7.75-10.35 8.4-8.43 9.05-6.5 10.05-5.68 11.05-4.85 12.1-4.85L12.1-4.85Q13.7-4.85 14.95-6.13 16.2-7.4 16.2-9.1L16.2-9.1Q16.2-11 14.58-12.45 12.95-13.9 10.45-15.65L10.45-15.65Q9.05-16.7 7.48-18.03 5.9-19.35 4.8-21.18 3.7-23 3.7-25.5L3.7-25.5Q3.7-28.1 4.93-30.1 6.15-32.1 8.18-33.48 10.2-34.85 12.63-35.58 15.05-36.3 17.45-36.3L17.45-36.3Q20.4-36.3 22.3-35.35 24.2-34.4 25.15-32.9 26.1-31.4 26.1-29.8L26.1-29.8Q26.1-28.3 25.28-26.93 24.45-25.55 22.85-24.7 21.25-23.85 18.9-23.85L18.9-23.85Q19.05-24.55 19.1-25.13 19.15-25.7 19.15-26.15L19.15-26.15Q19.15-28.65 18.07-29.73 17-30.8 15.7-30.8L15.7-30.8Q14.45-30.8 13.3-29.88 12.15-28.95 12.15-26.9L12.15-26.9Q12.15-25.15 13.08-23.9 14-22.65 15.48-21.7 16.95-20.75 18.6-19.85L18.6-19.85Q20.3-18.95 21.88-17.88 23.45-16.8 24.5-15.35 25.55-13.9 25.55-11.7L25.55-11.7Q25.55-9.4 24.3-7.23 23.05-5.05 20.9-3.38 18.75-1.7 15.98-0.7 13.2 0.3 10.15 0.3Z" opacity="1" transform="matrix(1,0,0,1,0,0)" fill="white" class="wordmark-text-0" id="SvgjsPath1344"></path></svg></g></svg></g></svg></g></svg></g></svg></g></svg></g></svg></g><g><path d="M0 123.6c0-68.262 55.338-123.6 123.6-123.6 30.402 0 58.24 10.976 79.768 29.183l-11.147 0c-19.26-14.022-42.974-22.294-68.621-22.295-25.647 0-49.361 8.272-68.621 22.295h-1.238l0 0.914c-28.443 21.285-46.852 55.244-46.853 93.503 0 38.259 18.409 72.218 46.853 93.503v0.914l1.238 0c19.26 14.022 42.974 22.294 68.621 22.295 25.647 0 49.361-8.272 68.621-22.295h11.147c-21.528 18.206-49.366 29.183-79.768 29.183-68.262 0-123.6-55.338-123.6-123.6z" fill="black" stroke="transparent"></path></g></svg></g><defs><mask></mask></defs></svg><rect width="395.52" height="247.2" fill="black" stroke="none" visibility="hidden"></rect></g></mask><linearGradient x1="0" x2="1" y1="0.5" y2="0.5" id="480d1350-946a-4fb2-846a-e1ddc6b7f676"><stop stop-color="#f00b51" offset="0"></stop><stop stop-color="#730062" offset="1"></stop></linearGradient><rect width="395.52" height="247.2" fill="url(#480d1350-946a-4fb2-846a-e1ddc6b7f676)" mask="url(#38fc3edd-9ce4-4f2d-8e50-3effe2243f81)" data-fill-palette-color="primary"></rect><mask id="a5a3c103-7e9f-4a75-bd32-6a6ad0889e52"><g id="SvgjsG1370"><svg viewBox="0 0 395.52 247.2" height="247.2" width="395.52"><g><svg></svg></g><g><svg viewBox="0 0 395.52 247.2" height="247.2" width="395.52"><g transform="matrix(1,0,0,1,144.01932786885246,47.215199999999996)"><svg viewBox="0 0 107.48134426229507 152.7696" height="152.7696" width="107.48134426229507"><g><svg viewBox="0 0 107.48134426229507 152.7696" height="152.7696" width="107.48134426229507"><g><svg viewBox="0 0 107.48134426229507 152.7696" height="152.7696" width="107.48134426229507"><g><svg viewBox="0 0 107.48134426229507 152.7696" height="152.7696" width="107.48134426229507"><g id="SvgjsG1369"><svg viewBox="0 0 107.48134426229507 152.7696" height="152.7696" width="107.48134426229507" id="SvgjsSvg1368"><g><svg viewBox="0 0 107.48134426229507 152.7696" height="152.7696" width="107.48134426229507"><g transform="matrix(1,0,0,1,0,0)"><svg width="107.48134426229507" viewBox="0.35 -36.3 25.75 36.599999999999994" height="152.7696" data-palette-color="url(#480d1350-946a-4fb2-846a-e1ddc6b7f676)"></svg></g></svg></g></svg></g></svg></g></svg></g></svg></g></svg></g><g><path d="M0 123.6c0-68.262 55.338-123.6 123.6-123.6 30.402 0 58.24 10.976 79.768 29.183l-11.147 0c-19.26-14.022-42.974-22.294-68.621-22.295-25.647 0-49.361 8.272-68.621 22.295h-1.238l0 0.914c-28.443 21.285-46.852 55.244-46.853 93.503 0 38.259 18.409 72.218 46.853 93.503v0.914l1.238 0c19.26 14.022 42.974 22.294 68.621 22.295 25.647 0 49.361-8.272 68.621-22.295h11.147c-21.528 18.206-49.366 29.183-79.768 29.183-68.262 0-123.6-55.338-123.6-123.6z" fill="white" stroke="transparent"></path></g></svg></g><defs><mask></mask></defs><mask><g id="SvgjsG1367"><svg viewBox="0 0 395.52 247.2" height="247.2" width="395.52"><g><svg></svg></g><g><svg viewBox="0 0 395.52 247.2" height="247.2" width="395.52"><g transform="matrix(1,0,0,1,144.01932786885246,47.215199999999996)"><svg viewBox="0 0 107.48134426229507 152.7696" height="152.7696" width="107.48134426229507"><g><svg viewBox="0 0 107.48134426229507 152.7696" height="152.7696" width="107.48134426229507"><g><svg viewBox="0 0 107.48134426229507 152.7696" height="152.7696" width="107.48134426229507"><g><svg viewBox="0 0 107.48134426229507 152.7696" height="152.7696" width="107.48134426229507"><g id="SvgjsG1366"><svg viewBox="0 0 107.48134426229507 152.7696" height="152.7696" width="107.48134426229507" id="SvgjsSvg1365"><g><svg viewBox="0 0 107.48134426229507 152.7696" height="152.7696" width="107.48134426229507"><g transform="matrix(1,0,0,1,0,0)"><svg width="107.48134426229507" viewBox="0.35 -36.3 25.75 36.599999999999994" height="152.7696" data-palette-color="url(#480d1350-946a-4fb2-846a-e1ddc6b7f676)"><path d="M10.15 0.3L10.15 0.3Q6.8 0.3 4.63-0.85 2.45-2 1.4-3.8 0.35-5.6 0.35-7.5L0.35-7.5Q0.35-9.35 1.25-11.03 2.15-12.7 3.83-13.8 5.5-14.9 7.8-14.9L7.8-14.9Q7.75-14.45 7.75-14.08 7.75-13.7 7.75-13.7L7.75-13.7Q7.75-10.35 8.4-8.43 9.05-6.5 10.05-5.68 11.05-4.85 12.1-4.85L12.1-4.85Q13.7-4.85 14.95-6.13 16.2-7.4 16.2-9.1L16.2-9.1Q16.2-11 14.58-12.45 12.95-13.9 10.45-15.65L10.45-15.65Q9.05-16.7 7.48-18.03 5.9-19.35 4.8-21.18 3.7-23 3.7-25.5L3.7-25.5Q3.7-28.1 4.93-30.1 6.15-32.1 8.18-33.48 10.2-34.85 12.63-35.58 15.05-36.3 17.45-36.3L17.45-36.3Q20.4-36.3 22.3-35.35 24.2-34.4 25.15-32.9 26.1-31.4 26.1-29.8L26.1-29.8Q26.1-28.3 25.28-26.93 24.45-25.55 22.85-24.7 21.25-23.85 18.9-23.85L18.9-23.85Q19.05-24.55 19.1-25.13 19.15-25.7 19.15-26.15L19.15-26.15Q19.15-28.65 18.07-29.73 17-30.8 15.7-30.8L15.7-30.8Q14.45-30.8 13.3-29.88 12.15-28.95 12.15-26.9L12.15-26.9Q12.15-25.15 13.08-23.9 14-22.65 15.48-21.7 16.95-20.75 18.6-19.85L18.6-19.85Q20.3-18.95 21.88-17.88 23.45-16.8 24.5-15.35 25.55-13.9 25.55-11.7L25.55-11.7Q25.55-9.4 24.3-7.23 23.05-5.05 20.9-3.38 18.75-1.7 15.98-0.7 13.2 0.3 10.15 0.3Z" opacity="1" transform="matrix(1,0,0,1,0,0)" fill="black" class="wordmark-text-0" id="SvgjsPath1364"></path></svg></g></svg></g></svg></g></svg></g></svg></g></svg></g></svg></g><g><path d="M0 123.6c0-68.262 55.338-123.6 123.6-123.6 30.402 0 58.24 10.976 79.768 29.183l-11.147 0c-19.26-14.022-42.974-22.294-68.621-22.295-25.647 0-49.361 8.272-68.621 22.295h-1.238l0 0.914c-28.443 21.285-46.852 55.244-46.853 93.503 0 38.259 18.409 72.218 46.853 93.503v0.914l1.238 0c19.26 14.022 42.974 22.294 68.621 22.295 25.647 0 49.361-8.272 68.621-22.295h11.147c-21.528 18.206-49.366 29.183-79.768 29.183-68.262 0-123.6-55.338-123.6-123.6z" fill="black" stroke="transparent"></path></g></svg></g><defs><mask></mask></defs></svg><rect width="395.52" height="247.2" fill="black" stroke="none" visibility="hidden"></rect></g></mask></svg><rect width="395.52" height="247.2" fill="black" stroke="none" visibility="hidden"></rect></g></mask><linearGradient x1="0" x2="1" y1="0.5" y2="0.5" id="4c7d2a61-9c39-4f8e-a783-54ed5cd4216c"><stop stop-color="#f00b51" offset="0"></stop><stop stop-color="#730062" offset="1"></stop></linearGradient></svg><rect width="395.52" height="247.2" fill="none" stroke="none" visibility="hidden"></rect></g></svg></g></svg>